# xmcd
#
# Track frame offsets:
#	150
#	12300
#	25630
#	35560
#	49427
#	65192
#	84107
#	95740
#	106370
#	118087
#
# Disc length: 1839
#
# Revision: 4
# Processed by: cddbd v1.5.1PL0 Copyright (c) Steve Scherf et al.
# Submitted via: CDex 1.51
# Normalized: r3:DSETVAR1,TDELIM( - )
#
DISCID=83072d0a
DTITLE=Various Artist - Blues Anthology, Shoutin' The Blues
DYEAR=1900
DGENRE=Blues
TTITLE0=Elmore James - Blues Before Sunrise
TTITLE1=B. B. King - Rock Me Baby
TTITLE2=Jack Dupree - Me and My Mule
TTITLE3=John Lee Hooker - Moaning Blues
TTITLE4=Jimmy Witherspoon - No Rollings Blues
TTITLE5=Howlin' Wolf - House Rocking Boogie
TTITLE6=Big Bill Dolson - Sittin' and Thinkin'
TTITLE7=Smokey Hogg - Little School Girl
TTITLE8=Muddy Waters - Dissatisfied
TTITLE9=Lightnin' Hopkins - Leave Jike Mary Alone
EXTD=
EXTT0=
EXTT1=
EXTT2=
EXTT3=
EXTT4=
EXTT5=
EXTT6=
EXTT7=
EXTT8=
EXTT9=
PLAYORDER=
